<?xml version="1.0" standalone="no"?>
<!DOCTYPE svg PUBLIC "-//W3C//DTD SVG 20010904//EN"
 "http://www.w3.org/TR/2001/REC-SVG-20010904/DTD/svg10.dtd">
<svg version="1.0" xmlns="http://www.w3.org/2000/svg"
 width="225.000000pt" height="225.000000pt" viewBox="0 0 225.000000 225.000000"
 preserveAspectRatio="xMidYMid meet">
<metadata>
Created by potrace 1.15, written by Peter Selinger 2001-2017
</metadata>
<g transform="translate(0.000000,225.000000) scale(0.100000,-0.100000)"
fill="#000000" stroke="none">
<path d="M903 2168 c-4 -7 -67 -134 -139 -283 -120 -246 -216 -417 -573 -1022
-55 -94 -101 -180 -101 -191 0 -43 44 -72 293 -196 271 -135 474 -222 718
-309 280 -100 286 -102 311 -88 23 13 49 66 391 806 178 386 357 804 357 836
0 41 -46 65 -273 146 -363 129 -919 313 -948 313 -15 0 -31 -6 -36 -12z m-15
-954 c45 -17 72 -32 72 -41 0 -26 -54 -113 -70 -113 -25 0 -134 48 -144 62
-10 17 38 118 57 118 6 0 45 -12 85 -26z m214 -85 c43 -17 78 -36 78 -41 0
-17 -51 -109 -63 -114 -16 -5 -149 43 -158 58 -4 6 -5 18 -1 27 9 26 53 101
60 101 3 0 41 -14 84 -31z m-305 -76 c50 -19 73 -33 73 -44 0 -18 -46 -106
-61 -115 -16 -10 -148 47 -154 67 -7 21 42 119 58 119 6 0 43 -12 84 -27z
m529 -12 c38 -16 70 -34 72 -39 4 -12 -43 -108 -57 -116 -14 -9 -144 41 -158
60 -9 13 -7 27 15 70 16 34 33 54 43 54 9 0 48 -13 85 -29z m-263 -93 c33 -12
34 -27 5 -89 -27 -57 -39 -64 -81 -45 -18 7 -51 21 -74 31 -30 13 -43 24 -43
38 0 20 38 97 54 109 5 3 32 -3 60 -14 28 -11 63 -25 79 -30z m-361 -60 c43
-18 78 -38 78 -45 0 -18 -47 -110 -60 -118 -12 -8 -157 53 -163 68 -4 11 52
127 62 127 3 0 40 -14 83 -32z m537 -13 c40 -16 75 -34 78 -41 4 -12 -23 -73
-50 -108 -14 -19 -16 -19 -96 13 -51 21 -81 39 -81 48 0 26 57 126 69 121 4
-2 39 -16 80 -33z m-318 -75 c41 -17 78 -35 82 -39 11 -11 -44 -120 -64 -126
-9 -3 -32 1 -50 9 -19 8 -51 21 -71 30 -20 9 -38 22 -41 29 -5 13 51 127 63
127 4 0 40 -14 81 -30z m-298 -87 c37 -14 67 -31 67 -38 0 -17 -60 -125 -70
-125 -23 0 -160 70 -160 82 0 7 14 37 31 66 23 40 34 52 47 47 9 -3 47 -18 85
-32z m518 -4 c41 -17 78 -35 83 -40 13 -12 -43 -129 -62 -129 -29 0 -162 62
-162 76 0 22 54 124 65 124 2 0 36 -14 76 -31z m-311 -80 c41 -17 79 -35 83
-39 12 -11 -50 -130 -67 -130 -19 0 -138 50 -154 65 -11 10 -8 23 17 74 17 33
35 61 39 61 4 0 41 -14 82 -31z"/>
</g>
</svg>
